<svg width="80" height="80" viewBox="0 0 80 80" fill="none" xmlns="http://www.w3.org/2000/svg">
<g clip-path="url(#clip0_2007_12345)">
<mask id="mask0_2007_12345" style="mask-type:luminance" maskUnits="userSpaceOnUse" x="0" y="0" width="80" height="80">
<path d="M80 0H0V80H80V0Z" fill="white"/>
</mask>
<g mask="url(#mask0_2007_12345)">
<path d="M40 80C37.3611 80 34.9306 79.3404 32.7083 78.0208C30.5556 76.7708 28.8194 75.0696 27.5 72.9168C26.25 70.6944 25.625 68.264 25.625 65.6248C25.625 62.2916 26.3889 59.514 27.9167 57.2916C29.4444 55.0696 31.8056 52.4652 35 49.4792C37.3611 47.3264 38.5417 45.2776 38.5417 43.3332V41.4584H36.6667C34.5139 41.4584 31.5625 43.6112 27.8125 47.9168C24.132 52.2224 19.6528 54.3748 14.375 54.3748C11.7361 54.3748 9.30556 53.75 7.08332 52.5C4.93056 51.1804 3.19444 49.4444 1.875 47.2916C0.625 45.0696 0 42.6388 0 40C0 37.3611 0.625 34.9653 1.875 32.8125C3.19444 30.5903 4.93056 28.8542 7.08332 27.6042C9.30556 26.2847 11.7361 25.625 14.375 25.625C19.5833 25.625 24.0278 27.743 27.7083 31.9792C31.3889 36.2153 34.375 38.3333 36.6667 38.3333H38.5417V36.6667C38.5417 34.7222 37.3611 32.6736 35 30.5208L32.6042 28.3333C30.868 26.7361 29.2708 24.8264 27.8125 22.6042C26.3542 20.3125 25.625 17.5694 25.625 14.375C25.625 11.7361 26.25 9.34028 27.5 7.18752C28.8194 4.96528 30.5556 3.22917 32.7083 1.97916C34.9306 0.65972 37.3611 0 40 0C42.6388 0 45.0348 0.65972 47.1876 1.97916C49.4096 3.29861 51.146 5.03472 52.396 7.18752C53.7152 9.34028 54.3748 11.7361 54.3748 14.375C54.3748 19.5833 52.2568 24.0278 48.0208 27.7083C43.7848 31.3889 41.6668 34.375 41.6668 36.6667V38.3333H43.3332C45.6944 38.3333 48.6804 36.2153 52.2916 31.9792C55.8332 27.743 60.2776 25.625 65.6252 25.625C68.264 25.625 70.6596 26.2847 72.8124 27.6042C75.0348 28.8542 76.7708 30.5556 78.0208 32.7083C79.3404 34.8611 80 37.2917 80 40C80 42.6388 79.3404 45.0696 78.0208 47.2916C76.7708 49.4444 75.0348 51.1804 72.8124 52.5C70.6596 53.75 68.264 54.3748 65.6252 54.3748C62.3612 54.3748 59.5488 53.5764 57.1876 51.9792C54.896 50.382 52.3264 48.0556 49.4792 45C47.3264 42.6388 45.2776 41.4584 43.3332 41.4584H41.6668V43.3332C41.6668 45.9028 43.7848 48.8888 48.0208 52.2916C52.2568 55.6944 54.3748 60.1388 54.3748 65.6248C54.3748 68.264 53.7152 70.6944 52.396 72.9168C51.146 75.0696 49.4444 76.7708 47.2916 78.0208C45.1388 79.3404 42.7084 80 40 80Z" fill="#F0F0F0"/>
</g>
</g>
<defs>
<clipPath id="clip0_2007_12345">
<rect width="80" height="80" fill="white"/>
</clipPath>
</defs>
</svg>
