<svg width="80" height="80" viewBox="0 0 80 80" fill="none" xmlns="http://www.w3.org/2000/svg">
<g clip-path="url(#clip0_2007_12367)">
<mask id="mask0_2007_12367" style="mask-type:luminance" maskUnits="userSpaceOnUse" x="-1" y="0" width="81" height="80">
<path d="M79.999 0H-0.000976562V80H79.999V0Z" fill="white"/>
</mask>
<g mask="url(#mask0_2007_12367)">
<path fill-rule="evenodd" clip-rule="evenodd" d="M30.2187 71.5144L30.2185 71.5148L25.1645 66.4608C25.1874 66.7708 25.199 67.084 25.199 67.4C25.199 74.3588 19.5578 80 12.599 80C5.64022 80 -0.000976562 74.3588 -0.000976562 67.4C-0.000976562 60.4412 5.64022 54.8 12.599 54.8C12.915 54.8 13.2282 54.8116 13.5383 54.8344L8.3441 49.6404L8.34518 49.6392C3.18241 44.3724 -0.000976562 37.1579 -0.000976562 29.2C-0.000976562 13.0733 13.0723 0 29.199 0C37.1569 0 44.3714 3.18338 49.6382 8.34616L49.639 8.3452L49.7954 8.50128C49.8294 8.53536 49.8638 8.56956 49.8978 8.6038L54.8334 13.5396C54.8106 13.2294 54.799 12.916 54.799 12.6C54.799 5.6412 60.4402 0 67.399 0C74.3578 0 79.999 5.6412 79.999 12.6C79.999 19.5588 74.3578 25.2 67.399 25.2C67.083 25.2 66.7698 25.1884 66.4594 25.1655L71.3958 30.1019C71.4298 30.1356 71.4634 30.1694 71.497 30.2032L71.5134 30.2196C76.7582 35.4984 79.999 42.7708 79.999 50.8C79.999 66.9268 66.9258 80 50.799 80C42.7698 80 35.4975 76.7592 30.2187 71.5144Z" fill="#F0F0F0"/>
</g>
</g>
<defs>
<clipPath id="clip0_2007_12367">
<rect width="80" height="80" fill="white"/>
</clipPath>
</defs>
</svg>
