<svg width="80" height="80" viewBox="0 0 80 80" fill="none" xmlns="http://www.w3.org/2000/svg">
<g clip-path="url(#clip0_401_12333)">
<mask id="mask0_401_12333" style="mask-type:luminance" maskUnits="userSpaceOnUse" x="0" y="0" width="80" height="80">
<path d="M80 0H0V80H80V0Z" fill="white"/>
</mask>
<g mask="url(#mask0_401_12333)">
<path fill-rule="evenodd" clip-rule="evenodd" d="M40.1548 36.7413C38.4966 16.174 21.28 0 0.285716 0C0.285716 20.897 16.3101 38.0512 36.7413 39.8451C16.174 41.5032 9.17688e-07 58.72 0 79.7144C20.897 79.7144 38.0512 63.69 39.8451 43.2588C41.5032 63.826 58.72 80 79.7144 80C79.7144 59.1032 63.69 41.9488 43.2588 40.1548C63.826 38.4966 80 21.28 80 0.285714C59.1032 0.285713 41.9488 16.3101 40.1548 36.7413ZM39.999 40.0008L40.0008 40.0012L40.0012 39.999C40.0004 39.999 39.999 39.999 39.999 39.999V40.0008Z" fill="#F0F0F0"/>
</g>
</g>
<defs>
<clipPath id="clip0_401_12333">
<rect width="80" height="80" fill="white"/>
</clipPath>
</defs>
</svg>
