<svg width="22" height="22" viewBox="0 0 22 22" fill="none" xmlns="http://www.w3.org/2000/svg">
<path d="M10.8799 21.7184H10.8321C4.85936 21.7184 0 16.8577 0 10.8831V10.8353C0 4.86079 4.85936 0 10.8321 0H10.8799C16.8527 0 21.7121 4.86079 21.7121 10.8353V10.8831C21.7121 16.8577 16.8527 21.7184 10.8799 21.7184ZM10.8321 0.735147C5.26431 0.735147 0.734931 5.26586 0.734931 10.8353V10.8831C0.734931 16.4526 5.26431 20.9833 10.8321 20.9833H10.8799C16.4477 20.9833 20.9771 16.4526 20.9771 10.8831V10.8353C20.9771 5.26586 16.4477 0.735147 10.8799 0.735147H10.8321Z" fill="white"/>
<path d="M17.4371 11.1324C17.4385 11.1096 17.4393 11.0861 17.44 11.0625L17.4525 10.7707L17.4415 10.7678C17.4202 9.22542 16.8704 7.76394 15.879 6.59653L15.8908 6.58403L15.5784 6.26277C14.3254 4.97553 12.6475 4.26685 10.8528 4.26685C9.93122 4.26685 9.04489 4.45284 8.21222 4.81821L8.2056 4.81306L7.93515 4.94686C7.57724 5.12403 7.23917 5.33134 6.92388 5.56585C6.71369 5.72244 6.51379 5.89005 6.32418 6.06943C6.25363 6.13633 6.18528 6.2047 6.11767 6.27454C5.19092 7.23243 4.56182 8.46086 4.34501 9.8047L4.27519 10.2399L4.29063 10.2436C4.27152 10.448 4.26123 10.6545 4.26123 10.8604C4.26123 12.6078 4.95794 14.2832 6.18454 15.5146L6.1794 15.5242L6.45426 15.7704C7.66469 16.8555 9.22642 17.4539 10.8521 17.4539C10.9675 17.4539 11.0821 17.451 11.196 17.4451C11.9956 17.4046 12.7695 17.2209 13.5 16.8996C13.5 16.8996 13.5008 16.8996 13.5015 16.8996L13.7874 16.7739V16.7651C15.915 15.7028 17.3356 13.5319 17.4363 11.1508C17.4363 11.15 17.4363 11.1493 17.4363 11.1486C17.4363 11.1478 17.4363 11.1463 17.4363 11.1456V11.1353L17.4371 11.1324ZM16.4714 11.4926C16.4684 11.5161 16.4655 11.5397 16.4625 11.5632C16.4574 11.6036 16.4523 11.644 16.4464 11.6837C16.4427 11.7095 16.4383 11.7352 16.4339 11.7609C16.428 11.7984 16.4214 11.8359 16.4148 11.8734C16.4096 11.9006 16.4045 11.9271 16.3986 11.9543C16.3913 11.9903 16.3846 12.0263 16.3766 12.0616C16.3707 12.0888 16.3641 12.116 16.3575 12.1432C16.3494 12.1785 16.3405 12.213 16.3317 12.2476C16.3244 12.2748 16.317 12.3027 16.3097 12.3299C16.3001 12.3638 16.2906 12.3983 16.281 12.4321C16.2729 12.4593 16.2648 12.4873 16.256 12.5145C16.2457 12.5483 16.2347 12.5814 16.2244 12.6152C16.2156 12.6424 16.2061 12.6696 16.1965 12.6968C16.1847 12.7299 16.173 12.7629 16.1612 12.796C16.1517 12.8225 16.1414 12.8497 16.1311 12.8762C16.1186 12.9092 16.1054 12.9416 16.0921 12.9747C16.0819 13.0011 16.0708 13.0268 16.0598 13.0533C16.0458 13.0857 16.0319 13.118 16.0172 13.1504C16.0054 13.1761 15.9944 13.2018 15.9826 13.2268C15.9672 13.2592 15.9518 13.2915 15.9363 13.3239C15.9246 13.3489 15.9121 13.3731 15.8996 13.3981C15.8834 13.4305 15.8658 13.4628 15.8489 13.4951C15.8364 13.5187 15.8239 13.5422 15.8114 13.5657C15.793 13.5988 15.7739 13.6319 15.7548 13.665C15.7423 13.687 15.7298 13.7091 15.7173 13.7304C15.696 13.7664 15.674 13.8024 15.6519 13.8377C15.6409 13.8554 15.6299 13.8737 15.6188 13.8921C15.588 13.9406 15.5564 13.9884 15.524 14.0362C15.5211 14.0414 15.5174 14.0458 15.5145 14.0509C15.4785 14.1031 15.4417 14.1546 15.4042 14.206C15.3932 14.2207 15.3815 14.2354 15.3704 14.2501C15.344 14.2862 15.3168 14.3215 15.2896 14.3567C15.2749 14.3759 15.2595 14.3942 15.244 14.4133C15.2198 14.4435 15.1948 14.4744 15.1698 14.5038C15.1529 14.5236 15.1353 14.5435 15.1184 14.5633C15.0941 14.5912 15.0699 14.6192 15.0449 14.6471C15.0265 14.6677 15.0081 14.6875 14.9897 14.7074C14.9655 14.7339 14.9405 14.7603 14.9155 14.7868C14.8964 14.8066 14.8766 14.8265 14.8567 14.8463C14.8317 14.8713 14.8067 14.8971 14.781 14.9221C14.7604 14.9419 14.7406 14.961 14.72 14.9809C14.6943 15.0051 14.6686 15.0294 14.6429 15.0529C14.6215 15.072 14.6002 15.0912 14.5789 15.1103C14.5525 15.1338 14.526 15.1566 14.4988 15.1794C14.4768 15.1978 14.4555 15.2161 14.4327 15.2345C14.4055 15.2566 14.3783 15.2793 14.3504 15.3007C14.3283 15.3183 14.3055 15.3359 14.2827 15.3536C14.2548 15.3749 14.2262 15.3962 14.1982 15.4176C14.1754 15.4345 14.1519 15.4514 14.1291 15.4683C14.1005 15.4889 14.0711 15.5095 14.0417 15.5293C14.0182 15.5455 13.9954 15.5616 13.9719 15.5771C13.9417 15.5969 13.9109 15.6168 13.8807 15.6359C13.8572 15.6506 13.8337 15.666 13.8102 15.6807C13.7881 15.6947 13.7654 15.7072 13.7426 15.7212C13.636 14.3303 13.3244 12.8901 12.8298 11.5051C14.0549 11.2294 15.2984 11.2206 16.4728 11.4823C16.4728 11.486 16.4728 11.4897 16.4721 11.4926H16.4714ZM12.4858 10.6244C12.3197 10.2311 12.1419 9.84661 11.9508 9.47462C13.1811 8.91518 14.2974 8.16312 15.2235 7.27139C15.9848 8.19694 16.428 9.32981 16.4964 10.5303C15.1963 10.2693 13.8278 10.3017 12.4851 10.6244H12.4858ZM5.36363 9.49153C5.38494 9.40552 5.40846 9.31951 5.43418 9.23423C5.43859 9.21879 5.44373 9.20263 5.44814 9.18719C5.47387 9.10412 5.50106 9.02177 5.53045 8.94017C5.53266 8.93429 5.53413 8.92914 5.53634 8.92326C5.54001 8.91297 5.54368 8.90269 5.54736 8.89239C5.57749 8.81153 5.60909 8.73213 5.64217 8.65273C5.64731 8.64097 5.65172 8.62995 5.65686 8.61819C5.6576 8.61598 5.65907 8.61377 5.6598 8.61083C5.69434 8.52996 5.73109 8.45056 5.77004 8.3719C5.77592 8.35941 5.78254 8.34691 5.78842 8.33367C5.8281 8.25428 5.86926 8.17636 5.91262 8.09917C5.91923 8.08667 5.92585 8.07491 5.9332 8.06315C5.97582 7.98816 6.02065 7.91391 6.06696 7.84039C6.0721 7.83231 6.07724 7.82422 6.08239 7.81614C6.08533 7.81099 6.089 7.80584 6.09268 7.80069C6.13971 7.72718 6.18895 7.65514 6.23893 7.58456C6.24775 7.57207 6.2573 7.55883 6.26612 7.54633C6.31757 7.47503 6.37122 7.40445 6.42634 7.33535C6.43515 7.32432 6.44471 7.3133 6.45353 7.30227C6.50938 7.23317 6.56671 7.1648 6.62624 7.0979C6.63359 7.08908 6.64167 7.08099 6.64902 7.07217C6.71002 7.0038 6.77322 6.93764 6.8379 6.87221C6.84525 6.86486 6.85186 6.85824 6.85921 6.85089C6.92241 6.7884 6.98635 6.72665 7.0525 6.6671C7.05838 6.66196 7.06426 6.65608 7.07013 6.65093C7.07381 6.64799 7.07675 6.64505 7.08042 6.64211C7.14657 6.5833 7.21418 6.52595 7.28253 6.46934C7.29355 6.46052 7.30458 6.45096 7.3156 6.44214C7.38542 6.38627 7.45597 6.33261 7.52873 6.27968C7.54122 6.27086 7.55372 6.2613 7.56695 6.25248C7.63971 6.20028 7.71393 6.14955 7.78963 6.10103C7.80139 6.09368 7.81388 6.0856 7.82564 6.07825C7.90355 6.02899 7.98218 5.9812 8.06303 5.93563C8.06891 5.93269 8.07478 5.92901 8.08066 5.92607C9.02652 6.74943 9.893 7.8007 10.6162 9.00119C8.87145 9.61504 7.02898 9.79294 5.35848 9.50917C5.35995 9.50329 5.36142 9.49668 5.36289 9.49006L5.36363 9.49153ZM11.1255 5.2093C11.1556 5.21077 11.1857 5.21372 11.2159 5.21519C11.2769 5.21886 11.3371 5.22327 11.3974 5.22841C11.4327 5.23209 11.468 5.2365 11.5032 5.24018C11.5576 5.24606 11.612 5.25268 11.6664 5.26077C11.7039 5.26591 11.7406 5.27253 11.7774 5.27841C11.8295 5.28723 11.881 5.29605 11.9324 5.30561C11.9699 5.31296 12.0074 5.32032 12.0449 5.3284C12.0956 5.33943 12.1463 5.35045 12.1963 5.36295C12.2338 5.37177 12.2705 5.38133 12.3073 5.39089C12.3572 5.40412 12.4072 5.41808 12.4572 5.43279C12.4932 5.44308 12.5292 5.45411 12.5652 5.46514C12.6159 5.48131 12.6666 5.49822 12.7173 5.51586C12.7511 5.52762 12.785 5.53865 12.8188 5.55115C12.8731 5.57173 12.9275 5.59305 12.9812 5.6151C13.0098 5.62687 13.0385 5.63716 13.0664 5.64966C13.1436 5.68274 13.22 5.71729 13.2957 5.75331C13.3031 5.75699 13.3112 5.76066 13.3185 5.76434C13.3949 5.8011 13.4706 5.84006 13.5449 5.88049C13.5721 5.89519 13.5985 5.91063 13.625 5.92607C13.6757 5.95474 13.7264 5.98342 13.7771 6.01429C13.808 6.03267 13.8374 6.05252 13.8675 6.07164C13.9131 6.10031 13.9579 6.12897 14.0027 6.15911C14.0343 6.18043 14.0652 6.20175 14.0961 6.22381C14.1387 6.25395 14.1813 6.28409 14.2232 6.3157C14.2541 6.33849 14.2842 6.36201 14.3151 6.38554C14.3562 6.41788 14.3974 6.45023 14.4378 6.48332C14.4672 6.50758 14.4966 6.53257 14.526 6.55757C14.5414 6.5708 14.5569 6.5855 14.5723 6.59873C13.7066 7.43239 12.6563 8.13225 11.4974 8.65053C10.7889 7.44709 9.94224 6.37745 9.01256 5.5063C9.6005 5.3034 10.2164 5.20048 10.8514 5.20048C10.9432 5.20048 11.0343 5.20269 11.1255 5.2071V5.2093ZM5.21223 10.4347C5.7796 10.5303 6.36387 10.5781 6.95622 10.5781C8.32172 10.5781 9.73205 10.3267 11.0799 9.83191C11.2578 10.1738 11.4253 10.5259 11.5811 10.8876C11.5025 10.914 11.4246 10.9405 11.3467 10.9692C9.36973 11.7007 7.73157 13.0026 6.6696 14.6662C5.72742 13.6304 5.19606 12.2726 5.19606 10.8596C5.19606 10.7178 5.20194 10.5759 5.21223 10.4347ZM10.6015 16.5107C10.5743 16.5092 10.5471 16.507 10.5199 16.5056C10.464 16.5026 10.4089 16.499 10.3531 16.4938C10.3207 16.4909 10.2891 16.4872 10.2568 16.4835C10.2068 16.4784 10.1561 16.4725 10.1061 16.4659C10.0723 16.4615 10.0385 16.4563 10.0047 16.4512C9.95694 16.4438 9.90917 16.4365 9.8614 16.4276C9.82686 16.4218 9.79232 16.4152 9.75851 16.4078C9.71148 16.3982 9.66517 16.3887 9.61887 16.3784C9.58433 16.371 9.55052 16.363 9.51672 16.3541C9.47042 16.3431 9.42412 16.3306 9.37855 16.3188C9.34475 16.31 9.31167 16.3005 9.2786 16.2909C9.2323 16.2777 9.186 16.263 9.1397 16.2483C9.10736 16.238 9.07576 16.2284 9.04342 16.2174C8.99565 16.2012 8.94788 16.1836 8.90085 16.1667C8.87145 16.1556 8.84132 16.1454 8.81192 16.1336C8.76047 16.1137 8.70903 16.0924 8.65759 16.0704C8.63333 16.0601 8.60908 16.0505 8.58483 16.0402C8.51133 16.0079 8.43857 15.9741 8.36655 15.9388C8.36508 15.9388 8.36361 15.9373 8.36214 15.9366C8.28791 15.9006 8.21516 15.8623 8.1424 15.8226C8.12109 15.8109 8.09977 15.7976 8.07772 15.7859C8.02775 15.7579 7.97777 15.7292 7.92853 15.6998C7.90208 15.6837 7.87562 15.6668 7.84916 15.6499C7.8058 15.6227 7.76244 15.5955 7.71981 15.5668C7.69189 15.5484 7.66396 15.5286 7.63677 15.5095C7.59634 15.4815 7.55666 15.4536 7.51697 15.4242C7.48831 15.4036 7.46038 15.3823 7.43246 15.361C7.41114 15.3448 7.38983 15.3279 7.36852 15.311C8.31584 13.7495 9.83127 12.527 11.6723 11.8455C11.7561 11.8146 11.8413 11.7859 11.9266 11.7573C12.4513 13.2055 12.7629 14.7177 12.8335 16.1579C12.7519 16.1887 12.6696 16.2174 12.5873 16.2439C12.5652 16.2512 12.5424 16.2571 12.5204 16.2637C12.4557 16.2836 12.3903 16.3034 12.3249 16.3211C12.2926 16.3299 12.2595 16.3372 12.2264 16.346C12.1706 16.36 12.1147 16.3732 12.0581 16.3857C12.0228 16.3938 11.9868 16.4004 11.9508 16.4078C11.8964 16.4188 11.842 16.4284 11.7869 16.4379C11.7509 16.4438 11.7142 16.4497 11.6774 16.4548C11.6216 16.4629 11.5657 16.4703 11.5091 16.4762C11.4738 16.4806 11.4393 16.4843 11.404 16.4879C11.3423 16.4938 11.2806 16.4982 11.2188 16.5019C11.1887 16.5041 11.1593 16.5063 11.1292 16.5078C11.0373 16.5122 10.9447 16.5151 10.8521 16.5151C10.7683 16.5151 10.6853 16.5129 10.6022 16.5092L10.6015 16.5107Z" fill="white"/>
</svg>
