<svg width="22" height="22" viewBox="0 0 22 22" fill="none" xmlns="http://www.w3.org/2000/svg">
<path d="M11.0157 21.7184H10.9679C4.9951 21.7184 0.135742 16.8576 0.135742 10.8831V10.8353C0.135742 4.86079 4.9951 0 10.9679 0H11.0157C16.9884 0 21.8478 4.86079 21.8478 10.8353V10.8831C21.8478 16.8576 16.9884 21.7184 11.0157 21.7184ZM10.9679 0.735147C5.40005 0.735147 0.870673 5.26586 0.870673 10.8353V10.8831C0.870673 16.4526 5.40005 20.9833 10.9679 20.9833H11.0157C16.5835 20.9833 21.1129 16.4526 21.1129 10.8831V10.8353C21.1129 5.26586 16.5835 0.735147 11.0157 0.735147H10.9679Z" fill="white"/>
<path d="M12.4522 8.42418V10.7098H15.2788L14.8312 13.7885H12.4522V20.882C11.9753 20.9481 11.4873 20.9827 10.9919 20.9827C10.4202 20.9827 9.85867 20.9371 9.31188 20.8489V13.7885H6.70508V10.7098H9.31188V7.91326C9.31188 6.17831 10.7178 4.77124 12.453 4.77124V4.7727C12.4581 4.7727 12.4625 4.77124 12.4677 4.77124H15.2795V7.43394H13.4422C12.8961 7.43394 12.453 7.87723 12.453 8.42345L12.4522 8.42418Z" fill="white"/>
</svg>
