<svg width="23" height="22" viewBox="0 0 23 22" fill="none" xmlns="http://www.w3.org/2000/svg">
<path d="M11.7281 21.7184H11.6803C5.70751 21.7184 0.848145 16.8576 0.848145 10.8831V10.8353C0.848145 4.86079 5.70751 0 11.6803 0H11.7281C17.7008 0 22.5602 4.86079 22.5602 10.8353V10.8831C22.5602 16.8576 17.7008 21.7184 11.7281 21.7184ZM11.6803 0.735147C6.11245 0.735147 1.58308 5.26586 1.58308 10.8353V10.8831C1.58308 16.4526 6.11245 20.9833 11.6803 20.9833H11.7281C17.2959 20.9833 21.8253 16.4526 21.8253 10.8831V10.8353C21.8253 5.26586 17.2959 0.735147 11.7281 0.735147H11.6803Z" fill="white"/>
<path d="M13.749 13.9281C11.0643 13.9281 8.88013 11.7426 8.87939 9.05706C8.88013 8.37631 9.43427 7.82275 10.1133 7.82275C10.1832 7.82275 10.2522 7.82863 10.3184 7.8404C10.4639 7.86466 10.6021 7.91391 10.7292 7.98816C10.7476 7.99919 10.7601 8.01683 10.763 8.03741L11.0467 9.82603C11.0504 9.84661 11.0438 9.86793 11.0298 9.88336C10.8733 10.0569 10.6734 10.1818 10.4507 10.2443L10.3434 10.2745L10.3838 10.3781C10.7498 11.3103 11.495 12.055 12.4276 12.4226L12.5313 12.4637L12.5614 12.3564C12.6239 12.1336 12.7488 11.9337 12.9222 11.7771C12.9347 11.7653 12.9516 11.7595 12.9685 11.7595C12.9722 11.7595 12.9759 11.7595 12.9803 11.7602L14.7684 12.044C14.7897 12.0476 14.8073 12.0594 14.8184 12.0778C14.8919 12.205 14.9411 12.3439 14.9661 12.4895C14.9779 12.5542 14.983 12.6225 14.983 12.6938C14.983 13.3738 14.4296 13.9274 13.749 13.9281Z" fill="white"/>
<path d="M18.5099 10.2701C18.3652 8.63369 17.6155 7.11561 16.3992 5.99598C15.1756 4.86973 13.5881 4.24927 11.9279 4.24927C8.28411 4.24927 5.31941 7.21485 5.31941 10.8597C5.31941 12.083 5.65673 13.2747 6.29539 14.3127L4.87109 17.4665L9.43134 16.9805C10.2243 17.3055 11.0636 17.4702 11.9272 17.4702C12.1543 17.4702 12.3872 17.4584 12.6209 17.4341C12.8267 17.4121 13.0347 17.3797 13.239 17.3386C16.2905 16.7218 18.518 14.0128 18.5357 10.895V10.8597C18.5357 10.6612 18.5268 10.4627 18.5092 10.2709L18.5099 10.2701ZM9.60699 15.5963L7.08398 15.8653L7.83728 14.1958L7.68662 13.9936C7.67559 13.9789 7.66457 13.9642 7.65208 13.9473C6.99799 13.0438 6.65256 11.9764 6.65256 10.8604C6.65256 7.95074 9.01904 5.58356 11.9279 5.58356C14.653 5.58356 16.9629 7.71034 17.1856 10.4252C17.1974 10.5708 17.204 10.7171 17.204 10.8612C17.204 10.9024 17.2032 10.9428 17.2025 10.9862C17.1466 13.4202 15.4467 15.4875 13.0685 16.0138C12.887 16.0543 12.701 16.0851 12.5158 16.105C12.3233 16.127 12.1256 16.1381 11.9294 16.1381C11.2305 16.1381 10.5514 16.0028 9.90978 15.7352C9.83849 15.7065 9.76867 15.6757 9.70326 15.644L9.60773 15.5977L9.60699 15.5963Z" fill="white"/>
</svg>
