<svg width="23" height="22" viewBox="0 0 23 22" fill="none" xmlns="http://www.w3.org/2000/svg">
<path d="M11.3037 21.7184H11.256C5.28319 21.7184 0.423828 16.8576 0.423828 10.8831V10.8353C0.423828 4.86079 5.28319 0 11.256 0H11.3037C17.2765 0 22.1359 4.86079 22.1359 10.8353V10.8831C22.1359 16.8576 17.2765 21.7184 11.3037 21.7184ZM11.256 0.735147C5.68814 0.735147 1.15876 5.26586 1.15876 10.8353V10.8831C1.15876 16.4526 5.68814 20.9833 11.256 20.9833H11.3037C16.8716 20.9833 21.4009 16.4526 21.4009 10.8831V10.8353C21.4009 5.26586 16.8716 0.735147 11.3037 0.735147H11.256Z" fill="white"/>
<path d="M5.04576 5.11816L9.88307 11.5875L5.01562 16.8474H6.11141L10.3733 12.2425L13.8164 16.8474H17.5447L12.4355 10.0142L16.9663 5.11816H15.8705L11.946 9.35922L8.7748 5.11816H5.04649H5.04576ZM6.65672 5.92535H8.36911L15.9323 16.0402H14.2199L6.65672 5.92535Z" fill="white"/>
</svg>
